<?xml version="1.0" encoding="UTF-8"?>
<svg width="2245px" height="620px" viewBox="0 0 2245 620" version="1.1" xmlns="http://www.w3.org/2000/svg" xmlns:xlink="http://www.w3.org/1999/xlink">
    <title>Extra Large@1x</title>
    <g id="Page-1" stroke="none" stroke-width="1" fill="none" fill-rule="evenodd">
        <g id="Extra-Large" transform="translate(-90.000000, -307.000000)">
            <path d="M282,307 L426.282452,617 L282,927 L90,927 L236.157317,617 L90,307 L282,307 Z" id="Combined-Shape" fill="#4285F4"></path>
            <g id="Aiko" transform="translate(511.953125, 399.646484)" fill="#000000" fill-rule="nonzero">
                <path d="M264.648438,320.800781 L103.271484,320.800781 L61.2792969,412.353516 L0,412.353516 L186.523438,11.71875 L366.455078,412.353516 L304.199219,412.353516 L264.648438,320.800781 Z M241.455078,267.333984 L185.546875,139.160156 L126.953125,267.333984 L241.455078,267.333984 Z" id="Shape"></path>
                <path d="M458.007812,174.560547 L458.007812,412.353516 L403.076172,412.353516 L403.076172,174.560547 L458.007812,174.560547 Z M394.775391,75.6835938 C394.775391,66.0807292 398.27474,57.7799479 405.273438,50.78125 C412.272135,43.7825521 420.654297,40.2832031 430.419922,40.2832031 C440.348307,40.2832031 448.811849,43.7825521 455.810547,50.78125 C462.809245,57.6171875 466.308594,65.999349 466.308594,75.9277344 C466.308594,85.8561198 462.809245,94.3196615 455.810547,101.318359 C448.974609,108.317057 440.592448,111.816406 430.664062,111.816406 C420.735677,111.816406 412.272135,108.317057 405.273438,101.318359 C398.27474,94.3196615 394.775391,85.7747396 394.775391,75.6835938 Z" id="Shape"></path>
                <polygon id="Path" points="582.519531 0 582.519531 251.464844 659.912109 174.560547 733.642578 174.560547 630.371094 274.414062 741.210938 412.353516 669.921875 412.353516 591.308594 312.011719 582.519531 320.800781 582.519531 412.353516 527.587891 412.353516 527.587891 0"></polygon>
                <path d="M755.371094,291.748047 C755.371094,257.405599 767.659505,228.190104 792.236328,204.101562 C816.813151,180.013021 846.761068,167.96875 882.080078,167.96875 C917.561849,167.96875 947.672526,180.094401 972.412109,204.345703 C996.826172,228.597005 1009.0332,258.382161 1009.0332,293.701172 C1009.0332,329.345703 996.744792,359.21224 972.167969,383.300781 C947.428385,407.226562 917.073568,419.189453 881.103516,419.189453 C845.458984,419.189453 815.592448,406.982422 791.503906,382.568359 C767.415365,358.479818 755.371094,328.20638 755.371094,291.748047 Z M811.523438,292.724609 C811.523438,316.48763 817.871094,335.286458 830.566406,349.121094 C843.58724,363.11849 860.758464,370.117188 882.080078,370.117188 C903.564453,370.117188 920.735677,363.19987 933.59375,349.365234 C946.451823,335.530599 952.880859,317.057292 952.880859,293.945312 C952.880859,270.833333 946.451823,252.360026 933.59375,238.525391 C920.572917,224.527995 903.401693,217.529297 882.080078,217.529297 C861.083984,217.529297 844.075521,224.527995 831.054688,238.525391 C818.033854,252.522786 811.523438,270.589193 811.523438,292.724609 Z" id="Shape"></path>
            </g>
            <g id="HR" transform="translate(1643.500000, 435.000000)" fill="#4285F4" fill-rule="nonzero">
                <polygon id="Path" points="98 145.5 239.5 145.5 239.5 0 337.5 0 337.5 377 239.5 377 239.5 221.5 98 221.5 98 377 0 377 0 0 98 0"></polygon>
                <path d="M475.7,168.5 L494.2,168.5 C513.533333,168.5 528.366667,164.5 538.7,156.5 C549.033333,148.5 554.2,137 554.2,122 C554.2,107 549.033333,95.5 538.7,87.5 C528.366667,79.5 513.533333,75.5 494.2,75.5 L475.7,75.5 L475.7,168.5 Z M691.2,377 L569.2,377 L475.7,232 L475.7,377 L377.7,377 L377.7,0 L530.2,0 C551.2,0 569.533333,3.08333333 585.2,9.25 C600.866667,15.4166667 613.783333,23.8333333 623.95,34.5 C634.116667,45.1666667 641.783333,57.5 646.95,71.5 C652.116667,85.5 654.7,100.5 654.7,116.5 C654.7,145.166667 647.783333,168.416667 633.95,186.25 C620.116667,204.083333 599.7,216.166667 572.7,222.5 L691.2,377 Z" id="Shape"></path>
            </g>
        </g>
    </g>
</svg>